<svg width="350" height="27" viewBox="0 0 350 27" fill="none" xmlns="http://www.w3.org/2000/svg">
<line y1="12.5896" x2="350" y2="12.5896" stroke="white" stroke-width="3"/>
<ellipse cx="174.456" cy="13.5" rx="10.3261" ry="9.5" fill="white"/>
<path d="M171.529 17.063C170.935 17.063 170.389 16.925 169.891 16.649C169.399 16.373 169.006 15.989 168.712 15.497C168.424 14.999 168.28 14.441 168.28 13.823C168.28 13.205 168.424 12.65 168.712 12.158C169.006 11.666 169.399 11.282 169.891 11.006C170.389 10.73 170.935 10.592 171.529 10.592C172.123 10.592 172.666 10.73 173.158 11.006C173.656 11.282 174.046 11.666 174.328 12.158C174.616 12.65 174.76 13.205 174.76 13.823C174.76 14.441 174.616 14.999 174.328 15.497C174.04 15.989 173.65 16.373 173.158 16.649C172.666 16.925 172.123 17.063 171.529 17.063ZM171.529 15.659C172.033 15.659 172.435 15.491 172.735 15.155C173.041 14.819 173.194 14.375 173.194 13.823C173.194 13.265 173.041 12.821 172.735 12.491C172.435 12.155 172.033 11.987 171.529 11.987C171.019 11.987 170.611 12.152 170.305 12.482C170.005 12.812 169.855 13.259 169.855 13.823C169.855 14.381 170.005 14.828 170.305 15.164C170.611 15.494 171.019 15.659 171.529 15.659ZM178.838 17L177.524 14.615H177.155V17H175.616V10.682H178.199C178.697 10.682 179.12 10.769 179.468 10.943C179.822 11.117 180.086 11.357 180.26 11.663C180.434 11.963 180.521 12.299 180.521 12.671C180.521 13.091 180.401 13.466 180.161 13.796C179.927 14.126 179.579 14.36 179.117 14.498L180.575 17H178.838ZM177.155 13.526H178.109C178.391 13.526 178.601 13.457 178.739 13.319C178.883 13.181 178.955 12.986 178.955 12.734C178.955 12.494 178.883 12.305 178.739 12.167C178.601 12.029 178.391 11.96 178.109 11.96H177.155V13.526Z" fill="#363062"/>
</svg>
